# xmcd
#
# Track frame offsets:
#	150
#	16597
#	36886
#	55926
#	74465
#	97348
#	114957
#	141038
#	156159
#	170802
#
# Disc length: 2684 seconds
#
# Revision: 0
# Processed by: cddbd v1.4PL0 Copyright (c) Steve Scherf et al.
# Submitted via: dBpowerAMP V4.0
#
DISCID=860a7a0a
DTITLE=Peven Everett - Studio Confessions
DYEAR=2002
DGENRE=Soul
TTITLE0=World Love
TTITLE1=One More Time
TTITLE2=Testin Me
TTITLE3=Everyday Girl
TTITLE4=They So Cold
TTITLE5=I Can Give It
TTITLE6=You Are To Me
TTITLE7=I Wanna Make Love
TTITLE8=Say It Back
TTITLE9=Sankofa
EXTD=Corrected capitalisations
EXTT0=
EXTT1=
EXTT2=
EXTT3=
EXTT4=
EXTT5=
EXTT6=
EXTT7=
EXTT8=
EXTT9=
PLAYORDER=
